<svg width="36" height="36" viewBox="0 0 36 36" fill="none" xmlns="http://www.w3.org/2000/svg">
  <rect width="36" height="36" rx="8" fill="#0A66C2"/>
  <path d="M12.6 27V14.4H8.7V27h3.9zm-1.95-14.25c1.25 0 2.03-.83 2.03-1.87-.02-1.07-.78-1.88-2-1.88s-2.03.8-2.03 1.88c0 1.04.78 1.87 1.98 1.87h.02zM28 27v-7.2c0-3.86-2.06-5.66-4.8-5.66-2.21 0-3.2 1.22-3.75 2.07h.03v-1.78h-3.9s.05 1.15 0 12.57h3.9V19.9c0-.37.03-.73.14-.99.28-.73.92-1.49 2-1.49 1.41 0 1.98 1.12 1.98 2.76V27H28z" fill="white"/>
</svg>
